# xmcd
#
# Track frame offsets: 
#        150
#        10693
#        22694
#        34058
#        46452
#        57696
#        68300
#        81349
#        88620
#        99837
#        109916
#        122009
#        133624
#        143326
#        154498
#        165637
#        178218
#        189549
#        202192
#        212443
#        222173
#        237230
#        247346
#        256529
#        266559
#        279925
#        292321
#        302198
#        312194
#        322798
#
# Disc length: 4435 seconds
#
# Revision: 0
# Processed by: cddbd v1.5.2PL0 Copyright (c) Steve Scherf et al.
# Submitted via: ExactAudioCopy v0.95b4
#
DISCID=aa11511e
DTITLE=Danny and The Juniors - Rockin' With
DYEAR=1994
DGENRE=Rock and Roll
TTITLE0=At The Hop
TTITLE1=Sometimes
TTITLE2=Rock And Roll Is Here To Stay
TTITLE3=School Boy Romance
TTITLE4=In The Meantime
TTITLE5=Dottie
TTITLE6=Crazy Cave
TTITLE7=Sassy Fran
TTITLE8=I Feel So Lonely
TTITLE9=Somehow I Can't Forget
TTITLE10=Playing Hard To Get
TTITLE11=Twistin' USA
TTITLE12=A Thousand Miles Away
TTITLE13=Oh Holy Night
TTITLE14=Pony Express
TTITLE15=Daydreamer
TTITLE16=Cha Cha Go Go
TTITLE17=Back To The Hop
TTITLE18=Twistin' All Night Long
TTITLE19=Some Kind Of Nut
TTITLE20=Doin' The Continental Walk
TTITLE21=Do The Mashed Potatoes
TTITLE22=Funny
TTITLE23=Just Because
TTITLE24=Your Hair Is Too Long
TTITLE25=Tallahassee Lassie
TTITLE26=When The Saints Go Twistin' In
TTITLE27=Candy Cane Sugary Plum
TTITLE28=Charleston Fish (Demo)
TTITLE29=Mister Whisper (Demo)
EXTD=
EXTT0=
EXTT1=
EXTT2=
EXTT3=
EXTT4=
EXTT5=
EXTT6=
EXTT7=
EXTT8=
EXTT9=
EXTT10=
EXTT11=
EXTT12=
EXTT13=
EXTT14=
EXTT15=
EXTT16=
EXTT17=
EXTT18=
EXTT19=
EXTT20=
EXTT21=
EXTT22=
EXTT23=
EXTT24=
EXTT25=
EXTT26=
EXTT27=
EXTT28=
EXTT29=
PLAYORDER=
